<svg width="40" height="41" viewBox="0 0 40 41" fill="none" xmlns="http://www.w3.org/2000/svg">
<g clip-path="url(#clip0_270506_7580)">
<path d="M20.0359 4.7262C20.3826 3.38356 21.1659 2.19433 22.2626 1.34572C23.3593 0.497107 24.7071 0.0373072 26.0937 0.0386994H26.25C26.5815 0.0386994 26.8994 0.170396 27.1339 0.404816C27.3683 0.639236 27.5 0.957179 27.5 1.2887C27.5 1.62022 27.3683 1.93816 27.1339 2.17258C26.8994 2.407 26.5815 2.5387 26.25 2.5387H26.0937C25.2623 2.53863 24.4545 2.81486 23.7971 3.32396C23.1398 3.83307 22.6703 4.54618 22.4625 5.3512C22.3796 5.67236 22.1725 5.94744 21.8868 6.11593C21.6011 6.28442 21.2602 6.33252 20.939 6.24964C20.6179 6.16676 20.3428 5.95969 20.1743 5.67399C20.0058 5.38829 19.9577 5.04736 20.0406 4.7262H20.0359ZM34.8906 26.5371C34.7969 26.3229 34.6454 26.139 34.4531 26.0059C31.8015 24.184 31.25 21.0762 31.25 18.7887C31.25 16.0278 33.3547 13.6231 34.6094 12.434C34.7328 12.3172 34.8311 12.1764 34.8982 12.0204C34.9654 11.8643 35.0001 11.6961 35.0001 11.5262C35.0001 11.3563 34.9654 11.1881 34.8982 11.032C34.8311 10.876 34.7328 10.7352 34.6094 10.6184C32.6281 8.74807 29.3469 7.5387 26.25 7.5387C24.0254 7.54069 21.851 8.20007 20 9.43401C17.8408 7.98614 15.2446 7.33589 12.6578 7.59511C10.0711 7.85432 7.6555 9.0068 5.82655 10.8543C4.73317 11.9706 3.87527 13.2951 3.30382 14.7494C2.73236 16.2037 2.459 17.758 2.49998 19.32C2.56132 21.9564 3.14757 24.5542 4.22445 26.9615C5.30133 29.3688 6.84725 31.5373 8.77186 33.3403C9.93092 34.4354 11.4664 35.0434 13.0609 35.0387H26.7609C27.6134 35.0403 28.4571 34.8668 29.2398 34.529C30.0225 34.1911 30.7274 33.6961 31.3109 33.0746C32.3918 31.9113 33.3269 30.6206 34.0953 29.2309C35.1922 27.2262 35.0515 26.9137 34.8906 26.5371Z" fill="#EB3850"/>
</g>
<defs>
<clipPath id="clip0_270506_7580">
<rect width="40" height="40" fill="white" transform="translate(0 0.0386963)"/>
</clipPath>
</defs>
</svg>
