<svg width="40" height="41" viewBox="0 0 40 41" fill="none" xmlns="http://www.w3.org/2000/svg">
<g clip-path="url(#clip0_270506_7784)">
<path d="M20.0359 4.72095C20.3826 3.37831 21.1659 2.18908 22.2626 1.34047C23.3593 0.491858 24.7071 0.0320582 26.0937 0.0334504H26.25C26.5815 0.0334504 26.8994 0.165146 27.1339 0.399567C27.3683 0.633987 27.5 0.95193 27.5 1.28345C27.5 1.61497 27.3683 1.93291 27.1339 2.16733C26.8994 2.40175 26.5815 2.53345 26.25 2.53345H26.0937C25.2623 2.53338 24.4545 2.80961 23.7971 3.31871C23.1398 3.82782 22.6703 4.54094 22.4625 5.34595C22.3796 5.66711 22.1725 5.94219 21.8868 6.11068C21.6011 6.27917 21.2602 6.32727 20.939 6.24439C20.6179 6.16151 20.3428 5.95444 20.1743 5.66874C20.0058 5.38304 19.9577 5.04211 20.0406 4.72095H20.0359ZM34.8906 26.5319C34.7969 26.3177 34.6454 26.1337 34.4531 26.0006C31.8015 24.1788 31.25 21.071 31.25 18.7835C31.25 16.0225 33.3547 13.6178 34.6094 12.4288C34.7328 12.3119 34.8311 12.1712 34.8982 12.0151C34.9654 11.859 35.0001 11.6909 35.0001 11.521C35.0001 11.351 34.9654 11.1829 34.8982 11.0268C34.8311 10.8707 34.7328 10.73 34.6094 10.6131C32.6281 8.74283 29.3469 7.53345 26.25 7.53345C24.0254 7.53544 21.851 8.19482 20 9.42876C17.8408 7.98089 15.2446 7.33064 12.6578 7.58986C10.0711 7.84907 7.6555 9.00155 5.82655 10.8491C4.73317 11.9653 3.87527 13.2899 3.30382 14.7442C2.73236 16.1984 2.459 17.7527 2.49998 19.3147C2.56132 21.9512 3.14757 24.549 4.22445 26.9563C5.30133 29.3636 6.84725 31.5321 8.77186 33.335C9.93092 34.4301 11.4664 35.0381 13.0609 35.0335H26.7609C27.6134 35.0351 28.4571 34.8616 29.2398 34.5237C30.0225 34.1859 30.7274 33.6909 31.3109 33.0694C32.3918 31.9061 33.3269 30.6153 34.0953 29.2256C35.1922 27.2209 35.0515 26.9084 34.8906 26.5319Z" fill="white"/>
</g>
<defs>
<clipPath id="clip0_270506_7784">
<rect width="40" height="40" fill="white" transform="translate(0 0.0334473)"/>
</clipPath>
</defs>
</svg>
