<svg width="35" height="36" viewBox="0 0 35 36" fill="none" xmlns="http://www.w3.org/2000/svg">
<path d="M29.1667 17.5334V32.1168H5.83337V17.5334" stroke="#EB3850" stroke-width="2" stroke-linecap="round" stroke-linejoin="round"/>
<path d="M32.0833 10.2418H2.91663V17.5335H32.0833V10.2418Z" stroke="#EB3850" stroke-width="2" stroke-linecap="round" stroke-linejoin="round"/>
<path d="M17.5 32.1168V10.2418" stroke="#EB3850" stroke-width="2" stroke-linecap="round" stroke-linejoin="round"/>
<path d="M17.5 10.2418H10.9375C9.97052 10.2418 9.04319 9.85766 8.35947 9.17393C7.67574 8.4902 7.29163 7.56287 7.29163 6.59594C7.29163 5.629 7.67574 4.70167 8.35947 4.01794C9.04319 3.33422 9.97052 2.9501 10.9375 2.9501C16.0416 2.9501 17.5 10.2418 17.5 10.2418Z" stroke="#EB3850" stroke-width="2" stroke-linecap="round" stroke-linejoin="round"/>
<path d="M17.5 10.2418H24.0625C25.0294 10.2418 25.9568 9.85766 26.6405 9.17393C27.3242 8.4902 27.7083 7.56287 27.7083 6.59594C27.7083 5.629 27.3242 4.70167 26.6405 4.01794C25.9568 3.33422 25.0294 2.9501 24.0625 2.9501C18.9583 2.9501 17.5 10.2418 17.5 10.2418Z" stroke="#EB3850" stroke-width="2" stroke-linecap="round" stroke-linejoin="round"/>
</svg>
