<svg width="40" height="41" viewBox="0 0 40 41" fill="none" xmlns="http://www.w3.org/2000/svg">
<g clip-path="url(#clip0_270506_7583)">
<path d="M34.9719 17.8793L8.75006 2.87614C8.36779 2.65322 7.9332 2.53577 7.49068 2.53577C7.04816 2.53577 6.61358 2.65322 6.23131 2.87614C5.85468 3.0921 5.5422 3.40425 5.32586 3.78066C5.10952 4.15706 4.99708 4.58419 5.00006 5.01833V35.059C4.99882 35.4927 5.11273 35.9189 5.33014 36.2942C5.54756 36.6694 5.86069 36.9803 6.23756 37.1949C6.61983 37.4178 7.05441 37.5353 7.49693 37.5353C7.93945 37.5353 8.37404 37.4178 8.75631 37.1949L34.9719 22.1949C35.3591 21.9827 35.6821 21.6702 35.9071 21.2903C36.1321 20.9104 36.2508 20.477 36.2508 20.0355C36.2508 19.594 36.1321 19.1606 35.9071 18.7807C35.6821 18.4008 35.3591 18.0884 34.9719 17.8761V17.8793ZM22.5001 21.8058L25.4563 24.7621L11.6282 32.6777L22.5001 21.8058ZM11.6251 7.39802L25.4579 15.3152L22.5001 18.2715L11.6251 7.39802ZM27.7047 23.4761L24.2672 20.0386L27.7047 16.6011L33.7094 20.0386L27.7047 23.4761Z" fill="#EB3850"/>
</g>
<defs>
<clipPath id="clip0_270506_7583">
<rect width="40" height="40" fill="white" transform="translate(0 0.0386963)"/>
</clipPath>
</defs>
</svg>
