<svg width="40" height="41" viewBox="0 0 40 41" fill="none" xmlns="http://www.w3.org/2000/svg">
<g clip-path="url(#clip0_270506_7792)">
<path d="M34.9719 17.874L8.75006 2.87089C8.36779 2.64798 7.9332 2.53052 7.49068 2.53052C7.04816 2.53052 6.61358 2.64798 6.23131 2.87089C5.85468 3.08685 5.5422 3.39901 5.32586 3.77541C5.10952 4.15181 4.99708 4.57894 5.00006 5.01308V35.0537C4.99882 35.4874 5.11273 35.9137 5.33014 36.2889C5.54756 36.6642 5.86069 36.975 6.23756 37.1896C6.61983 37.4126 7.05441 37.53 7.49693 37.53C7.93945 37.53 8.37404 37.4126 8.75631 37.1896L34.9719 22.1896C35.3591 21.9774 35.6821 21.665 35.9071 21.2851C36.1321 20.9052 36.2508 20.4718 36.2508 20.0303C36.2508 19.5887 36.1321 19.1553 35.9071 18.7754C35.6821 18.3955 35.3591 18.0831 34.9719 17.8709V17.874ZM22.5001 21.8006L25.4563 24.7568L11.6282 32.6725L22.5001 21.8006ZM11.6251 7.39277L25.4579 15.31L22.5001 18.2662L11.6251 7.39277ZM27.7047 23.4709L24.2672 20.0334L27.7047 16.5959L33.7094 20.0334L27.7047 23.4709Z" fill="white"/>
</g>
<defs>
<clipPath id="clip0_270506_7792">
<rect width="40" height="40" fill="white" transform="translate(0 0.0334473)"/>
</clipPath>
</defs>
</svg>
