<svg width="50" height="51" viewBox="0 0 50 51" fill="none" xmlns="http://www.w3.org/2000/svg">
<path d="M43.4167 10.3051C42.3526 9.24054 41.0892 8.39604 39.6987 7.81987C38.3081 7.2437 36.8177 6.94714 35.3125 6.94714C33.8073 6.94714 32.3169 7.2437 30.9264 7.81987C29.5358 8.39604 28.2724 9.24054 27.2084 10.3051L25 12.5134L22.7917 10.3051C20.6423 8.15575 17.7272 6.94826 14.6875 6.94826C11.6479 6.94826 8.73272 8.15575 6.58336 10.3051C4.434 12.4545 3.2265 15.3696 3.2265 18.4093C3.2265 21.4489 4.434 24.3641 6.58336 26.5134L8.79169 28.7218L25 44.9301L41.2084 28.7218L43.4167 26.5134C44.4813 25.4494 45.3258 24.186 45.9019 22.7954C46.4781 21.4049 46.7747 19.9145 46.7747 18.4093C46.7747 16.9041 46.4781 15.4137 45.9019 14.0231C45.3258 12.6326 44.4813 11.3692 43.4167 10.3051V10.3051Z" stroke="#EB3850" stroke-width="3" stroke-linecap="round" stroke-linejoin="round"/>
</svg>
