<svg width="35" height="36" viewBox="0 0 35 36" fill="none" xmlns="http://www.w3.org/2000/svg">
<g clip-path="url(#clip0_270506_7696)">
<path d="M13.125 32.1168C13.9304 32.1168 14.5833 31.4639 14.5833 30.6584C14.5833 29.853 13.9304 29.2001 13.125 29.2001C12.3195 29.2001 11.6666 29.853 11.6666 30.6584C11.6666 31.4639 12.3195 32.1168 13.125 32.1168Z" stroke="#EB3850" stroke-width="2" stroke-linecap="round" stroke-linejoin="round"/>
<path d="M29.1667 32.1168C29.9721 32.1168 30.625 31.4639 30.625 30.6584C30.625 29.853 29.9721 29.2001 29.1667 29.2001C28.3613 29.2001 27.7084 29.853 27.7084 30.6584C27.7084 31.4639 28.3613 32.1168 29.1667 32.1168Z" stroke="#EB3850" stroke-width="2" stroke-linecap="round" stroke-linejoin="round"/>
<path d="M1.45837 1.49178H7.29171L11.2 21.0189C11.3334 21.6903 11.6987 22.2934 12.2319 22.7226C12.7651 23.1519 13.4323 23.3799 14.1167 23.3668H28.2917C28.9761 23.3799 29.6433 23.1519 30.1765 22.7226C30.7098 22.2934 31.075 21.6903 31.2084 21.0189L33.5417 8.78345H8.75004" stroke="#EB3850" stroke-width="2" stroke-linecap="round" stroke-linejoin="round"/>
</g>
<defs>
<clipPath id="clip0_270506_7696">
<rect width="35" height="35" fill="white" transform="translate(0 0.0334473)"/>
</clipPath>
</defs>
</svg>
